<?xml version="1.0" encoding="utf-8"?>
<!-- Generator: Adobe Illustrator 21.1.0, SVG Export Plug-In . SVG Version: 6.00 Build 0)  -->
<svg version="1.1" id="Layer_1" xmlns="http://www.w3.org/2000/svg" xmlns:xlink="http://www.w3.org/1999/xlink" x="0px" y="0px"
	 viewBox="0 0 512 512" style="enable-background:new 0 0 512 512;" xml:space="preserve">
<style type="text/css">
	.st0{fill:#FF6C6C;}
	.st1{fill:#DEECF1;}
	.st2{fill:#4A696F;}
</style>
<path class="st0" d="M446,10v120c-16.3,0-369.7,0-380,0V10H446z"/>
<path class="st1" d="M86,130v372h340c0-13.2,0-351.4,0-372H86z"/>
<path class="st2" d="M366,50c11.1,0,20,8.9,20,20s-8.9,20-20,20s-20-8.9-20-20S354.9,50,366,50z"/>
<path class="st2" d="M146,50c11.1,0,20,8.9,20,20s-8.9,20-20,20s-20-8.9-20-20S134.9,50,146,50z"/>
<path d="M166,432c-5.5,0-10,4.5-10,10s4.5,10,10,10s10-4.5,10-10S171.5,432,166,432z"/>
<path d="M346,432H206c-5.5,0-10,4.5-10,10s4.5,10,10,10h140c5.5,0,10-4.5,10-10S351.5,432,346,432z"/>
<g>
	<g>
		<path d="M354.4,273c-10.5-11.8-25.2-18.4-41.5-18.4c-20.1,0-35.3,11.6-45.9,24.5c4,6.2,7.2,12.1,9.5,16.9
			c8.2-11.7,20.4-23.6,36.4-23.6c22.7,0,39.1,18.3,39.1,43.6s-16.4,43.6-39.1,43.6c-32.4,0-48.3-45.9-48.5-46.4v-0.1
			c-0.8-2.4-21-58.4-65.3-58.4c-16.3,0-31.1,6.5-41.5,18.4c-9.9,11.2-15.4,26.5-15.4,43s5.5,31.7,15.4,43
			c10.5,11.8,25.2,18.4,41.5,18.4c20.3,0,35.4-11.3,45.9-24c-4-6.2-7.1-12.1-9.4-17c-8,11.6-20.2,23.2-36.5,23.2
			c-22.7,0-39.1-18.3-39.1-43.6s16.4-43.6,39.1-43.6c31.3,0,48,45,48.5,46.5c1.2,3.5,20.6,58.4,65.3,58.4c16.3,0,31.1-6.5,41.5-18.4
			c9.9-11.2,15.4-26.5,15.4-43S364.3,284.3,354.4,273z"/>
	</g>
</g>
</svg>
