<svg height="512pt" viewBox="-70 0 512 512.001" width="512pt" xmlns="http://www.w3.org/2000/svg"><path d="m372.636719 20.605469v470.792969c0 11.382812-9.21875 20.601562-20.601563 20.601562h-331.429687c-11.382813 0-20.605469-9.21875-20.605469-20.601562v-470.792969c0-11.386719 9.222656-20.605469 20.605469-20.605469h331.429687c11.382813 0 20.601563 9.21875 20.601563 20.605469zm0 0" fill="#e8e6ed"/><path d="m372.636719 20.605469v470.792969c0 11.382812-9.21875 20.601562-20.601563 20.601562h-174.574218c139.539062-159.101562 138.496093-425.1875 134.003906-512h40.570312c11.382813 0 20.601563 9.21875 20.601563 20.605469zm0 0" fill="#d1d0d8"/><path d="m112.714844 92.089844c0 17.09375-13.855469 30.949218-30.949219 30.949218-17.089844 0-30.945313-13.855468-30.945313-30.949218s13.855469-30.949219 30.945313-30.949219c17.09375 0 30.949219 13.855469 30.949219 30.949219zm0 0" fill="#ff5677"/><path d="m112.71875 92.085938c0 17.097656-13.863281 30.953124-30.953125 30.953124-3.480469 0-6.824219-.578124-9.945313-1.636718 12.207032-4.144532 20.992188-15.699219 20.992188-29.3125 0-13.609375-8.785156-25.164063-20.992188-29.308594 3.121094-1.058594 6.46875-1.636719 9.945313-1.636719 17.089844 0 30.953125 13.851563 30.953125 30.941407zm0 0" fill="#ff2953"/><path d="m329.546875 123.035156c0 4.273438-3.464844 7.726563-7.726563 7.726563h-188.019531c-4.273437 0-7.726562-3.453125-7.726562-7.726563 0-4.265625 3.453125-7.726562 7.726562-7.726562h188.019531c4.265626 0 7.726563 3.460937 7.726563 7.726562zm0 0" fill="#898993"/><path d="m112.714844 201.363281c0 17.09375-13.855469 30.949219-30.949219 30.949219-17.089844 0-30.945313-13.855469-30.945313-30.949219s13.855469-30.949219 30.945313-30.949219c17.09375 0 30.949219 13.855469 30.949219 30.949219zm0 0" fill="#2fd92d"/><path d="m112.71875 201.359375c0 17.097656-13.863281 30.953125-30.953125 30.953125-3.480469 0-6.824219-.578125-9.945313-1.636719 12.207032-4.144531 20.992188-15.699219 20.992188-29.316406 0-13.605469-8.785156-25.160156-20.992188-29.304687 3.121094-1.058594 6.46875-1.636719 9.945313-1.636719 17.089844 0 30.953125 13.855469 30.953125 30.941406zm0 0" fill="#1fbf33"/><path d="m329.546875 232.316406c0 4.265625-3.464844 7.726563-7.726563 7.726563h-188.019531c-4.273437 0-7.726562-3.464844-7.726562-7.726563 0-4.277344 3.453125-7.726562 7.726562-7.726562h188.019531c4.265626 0 7.726563 3.449218 7.726563 7.726562zm0 0" fill="#898993"/><path d="m112.714844 310.636719c0 17.09375-13.855469 30.949219-30.949219 30.949219-17.089844 0-30.945313-13.855469-30.945313-30.949219s13.855469-30.949219 30.945313-30.949219c17.09375 0 30.949219 13.855469 30.949219 30.949219zm0 0" fill="#22d0ff"/><path d="m112.71875 310.632812c0 17.097657-13.863281 30.953126-30.953125 30.953126-3.480469 0-6.824219-.578126-9.945313-1.636719 12.207032-4.144531 20.992188-15.699219 20.992188-29.3125 0-13.609375-8.785156-25.164063-20.992188-29.308594 3.121094-1.058594 6.46875-1.636719 9.945313-1.636719 17.089844 0 30.953125 13.855469 30.953125 30.941406zm0 0" fill="#06b9ff"/><path d="m329.546875 341.589844c0 4.261718-3.464844 7.722656-7.726563 7.722656h-188.019531c-4.273437 0-7.726562-3.460938-7.726562-7.722656 0-4.265625 3.453125-7.726563 7.726562-7.726563h188.019531c4.265626-.003906 7.726563 3.457031 7.726563 7.726563zm0 0" fill="#898993"/><path d="m112.714844 419.910156c0 17.09375-13.855469 30.949219-30.949219 30.949219-17.089844 0-30.945313-13.855469-30.945313-30.949219s13.855469-30.949218 30.945313-30.949218c17.09375 0 30.949219 13.855468 30.949219 30.949218zm0 0" fill="#ffb800"/><path d="m112.71875 419.90625c0 17.097656-13.863281 30.953125-30.953125 30.953125-3.480469 0-6.824219-.578125-9.945313-1.636719 12.207032-4.144531 20.992188-15.699218 20.992188-29.3125 0-13.609375-8.785156-25.164062-20.992188-29.304687 3.121094-1.0625 6.46875-1.640625 9.945313-1.640625 17.089844 0 30.953125 13.855468 30.953125 30.941406zm0 0" fill="#ff9700"/><path d="m329.546875 450.859375c0 4.265625-3.464844 7.726563-7.726563 7.726563h-188.019531c-4.273437 0-7.726562-3.460938-7.726562-7.726563s3.453125-7.726563 7.726562-7.726563h188.019531c4.265626 0 7.726563 3.460938 7.726563 7.726563zm0 0" fill="#898993"/><g fill="#717177"><path d="m329.546875 450.859375c0 4.265625-3.464844 7.726563-7.726563 7.726563h-104.832031c3.171875-5.089844 6.253907-10.242188 9.21875-15.453126h95.613281c4.265626 0 7.726563 3.460938 7.726563 7.726563zm0 0"/><path d="m329.546875 341.589844c0 4.261718-3.464844 7.722656-7.726563 7.722656h-53.601562c1.773438-5.128906 3.484375-10.28125 5.121094-15.453125h48.480468c4.265626 0 7.726563 3.460937 7.726563 7.730469zm0 0"/><path d="m329.546875 232.316406c0 4.265625-3.464844 7.726563-7.726563 7.726563h-25.324218c.960937-5.183594 1.855468-10.332031 2.710937-15.453125h22.613281c4.265626 0 7.726563 3.449218 7.726563 7.726562zm0 0"/><path d="m321.820312 130.761719h-11.714843c.371093-5.234375.691406-10.382813.96875-15.453125h10.746093c4.265626 0 7.726563 3.460937 7.726563 7.726562 0 4.273438-3.460937 7.726563-7.726563 7.726563zm0 0"/></g></svg>