<?xml version="1.0" encoding="utf-8"?>
<!-- Generator: Adobe Illustrator 21.1.0, SVG Export Plug-In . SVG Version: 6.00 Build 0)  -->
<svg version="1.1" id="Capa_1" xmlns="http://www.w3.org/2000/svg" xmlns:xlink="http://www.w3.org/1999/xlink" x="0px" y="0px"
	 viewBox="0 0 57.9 57.9" style="enable-background:new 0 0 57.9 57.9;" xml:space="preserve">
<style type="text/css">
	.st0{fill:#B5885B;}
	.st1{fill:#FFFFFF;}
	.st2{fill:#E7ECED;}
	.st3{fill:#C7CAC7;}
	.st4{fill:#F7B563;}
</style>
<g>
	<path class="st0" d="M54,23V7.7C54,7.3,53.7,7,53.2,7H22.4c-0.3,0-0.5-0.1-0.7-0.4l-2.6-4.3C19.1,2.1,18.8,2,18.6,2H4.8
		C4.3,2,4,2.3,4,2.7V23C4,23,54,23,54,23z"/>
</g>
<rect x="7" y="19" class="st1" width="44" height="4"/>
<rect x="8" y="16" class="st2" width="42" height="3"/>
<rect x="9" y="13" class="st3" width="40" height="3"/>
<path class="st4" d="M52.7,56H5.2c-0.1,0-0.2-0.1-0.3-0.2L0,23.3C0,23.1,0.1,23,0.3,23h57.4c0.2,0,0.3,0.1,0.3,0.3L53,55.7
	C53,55.9,52.9,56,52.7,56z"/>
</svg>
