<?xml version="1.0" encoding="iso-8859-1"?>
<!-- Generator: Adobe Illustrator 19.0.0, SVG Export Plug-In . SVG Version: 6.00 Build 0)  -->
<svg version="1.1" id="Layer_1" xmlns="http://www.w3.org/2000/svg" xmlns:xlink="http://www.w3.org/1999/xlink" x="0px" y="0px"
	 viewBox="0 0 511.999 511.999" style="enable-background:new 0 0 511.999 511.999;" xml:space="preserve">
<path style="fill:#B89968;" d="M428.463,342.231l-24.757-129.975c-10.652-55.923-59.546-96.383-116.474-96.383h-62.463
	c-56.929,0-105.822,40.46-116.474,96.383L83.537,342.231l-55.768,23.9c-11.942,5.118-19.685,16.86-19.685,29.853l0,0
	c0,17.937,14.541,32.478,32.478,32.478h430.874c17.937,0,32.478-14.541,32.478-32.478l0,0c0-12.992-7.743-24.734-19.685-29.852
	L428.463,342.231z"/>
<path style="fill:#876C3F;" d="M428.463,342.231l-4.107-21.558H361.67c0,0-9.061-82.755-10.358-110.462
	c-3.401-72.701-60.258-90.788-64.082-94.338h-62.463c-3.824,3.551-60.682,21.638-64.083,94.338
	c-1.296,27.706-10.356,110.462-10.356,110.462H87.644l-0.017,0.091l0,0l-4.09,21.467l-55.768,23.9
	c-3.875,1.661-7.298,4.028-10.168,6.9l145.506,55.432h199.529l-220.192-86.232H428.463z"/>
<polygon style="fill:#A36D41;" points="42.957,359.622 223.663,428.463 309.895,428.463 83.537,342.231 "/>
<path style="fill:#B89968;" d="M329.853,212.256c-5.326-55.923-45.389-96.383-73.853-96.383s-68.527,40.46-73.853,96.383
	l-12.379,129.975h172.463L329.853,212.256z"/>
<path style="fill:#FFFFFF;" d="M204.8,234.442c0-8.788,0.85-17.493,2.531-25.873l15.853,3.178
	c-1.47,7.335-2.215,14.971-2.215,22.695H204.8z M227.153,197.268l-15.248-5.379c8.225-23.317,23.357-42.349,40.478-50.909
	l7.231,14.461C246.355,162.072,233.916,178.099,227.153,197.268z"/>
<path style="fill:#B89968;" d="M274.651,115.873c1.838-3.173,2.907-6.848,2.907-10.779c0-11.906-9.651-21.558-21.558-21.558
	c-11.906,0-21.558,9.651-21.558,21.558c0,3.931,1.069,7.606,2.907,10.779H274.651z"/>
<rect x="366.484" y="280.252" width="16.168" height="16.168"/>
<rect x="129.347" y="280.252" width="16.168" height="16.168"/>
<path d="M487.415,358.701L435.6,336.494l-23.953-125.751c-11.362-59.656-63.686-102.954-124.415-102.954h-1.729
	c0.083-0.895,0.139-1.794,0.139-2.695c0-16.345-13.297-29.642-29.642-29.642s-29.642,13.297-29.642,29.642
	c0,0.901,0.057,1.8,0.139,2.695h-1.729c-60.729,0-113.053,43.298-124.416,102.954L76.4,336.494l-51.815,22.207
	C9.65,365.102,0,379.735,0,395.985c0,22.366,18.196,40.562,40.562,40.562h430.874c22.366,0,40.562-18.196,40.562-40.562
	C512,379.735,502.35,365.102,487.415,358.701z M395.764,213.769l22.93,120.378h-69.111L337.902,211.49
	c-2.596-27.255-13.28-53.382-30.085-73.568c-4.304-5.171-8.884-9.765-13.608-13.718C344.169,127.352,386.29,164.029,395.764,213.769
	z M256,123.957c22.82,0,60.706,35.523,65.805,89.064l11.536,121.125H178.659l11.536-121.125
	C195.294,159.48,233.18,123.957,256,123.957z M242.526,105.094c0-7.43,6.044-13.474,13.474-13.474
	c7.43,0,13.474,6.044,13.474,13.474c0,0.917-0.091,1.816-0.272,2.695h-26.405C242.617,106.91,242.526,106.011,242.526,105.094z
	 M116.236,213.769c9.474-49.739,51.596-86.417,101.557-89.566c-4.724,3.953-9.305,8.548-13.608,13.718
	c-16.804,20.187-27.488,46.314-30.085,73.568l-11.682,122.657H93.306L116.236,213.769z M83.716,350.95l182.249,69.428h-40.814
	L64.509,359.181L83.716,350.95z M16.168,395.985c0-9.771,5.803-18.573,14.785-22.422l12.182-5.221l136.597,52.038H40.562
	C27.111,420.378,16.168,409.436,16.168,395.985z M471.438,420.378H311.382l-183.916-70.063h299.337l54.243,23.247
	c8.981,3.849,14.784,12.65,14.784,22.422C495.832,409.436,484.889,420.378,471.438,420.378z"/>
<g>
</g>
<g>
</g>
<g>
</g>
<g>
</g>
<g>
</g>
<g>
</g>
<g>
</g>
<g>
</g>
<g>
</g>
<g>
</g>
<g>
</g>
<g>
</g>
<g>
</g>
<g>
</g>
<g>
</g>
</svg>
