<svg height="512pt" viewBox="0 0 512 512" width="512pt" xmlns="http://www.w3.org/2000/svg"><path d="m256 0c-141.382812 0-256 114.617188-256 256s114.617188 256 256 256 256-114.617188 256-256-114.617188-256-256-256zm-211.863281 256c0-116.816406 95.046875-211.863281 211.863281-211.863281 51.605469 0 98.941406 18.566406 135.722656 49.339843l-298.246094 298.246094c-30.773437-36.78125-49.339843-84.125-49.339843-135.722656zm211.863281 211.863281c-49.347656 0-94.773438-17.011719-130.824219-45.410156l297.277344-297.285156c28.398437 36.058593 45.410156 81.484375 45.410156 130.832031 0 116.816406-95.046875 211.863281-211.863281 211.863281zm0 0" fill="#dd352e"/></svg>