<svg height="512pt" viewBox="0 0 512 512" width="512pt" xmlns="http://www.w3.org/2000/svg"><path d="m306 512h-100v-90h100zm0 0" fill="#265d77"/><path d="m256 422h50v90h-50zm0 0" fill="#132f3b"/><path d="m512 452h-424v-261h334c49.625 0 90 40.375 90 90zm0 0" fill="#b7e4f8"/><path d="m422 191h-166v261h256v-171c0-49.625-40.375-90-90-90zm0 0" fill="#6fc8f1"/><path d="m241 0h30v279h-30zm0 0" fill="#ffb234"/><path d="m180 452h-180v-171c0-49.625 40.375-90 90-90s90 40.375 90 90zm0 0" fill="#388cb3"/><path d="m180 452h-180v-171c0-49.625 40.375-90 90-90s90 40.375 90 90zm-150-30h120v-141c0-33.085938-26.914062-60-60-60s-60 26.914062-60 60zm0 0" fill="#4bbaed"/><path d="m256 0h15v279h-15zm0 0" fill="#ff9f01"/><path d="m330.214844 130h-89.214844v-130h89.214844l65 65zm0 0" fill="#ff7b01"/><path d="m330.214844 130h-74.214844v-130h74.214844l65 65zm0 0" fill="#ff4f18"/><path d="m256 354c-24.8125 0-45-20.1875-45-45s20.1875-45 45-45 45 20.1875 45 45-20.1875 45-45 45zm0 0" fill="#265d77"/><path d="m301 309c0-24.8125-20.1875-45-45-45v90c24.8125 0 45-20.1875 45-45zm0 0" fill="#132f3b"/></svg>