<?xml version="1.0" encoding="utf-8"?>
<!-- Generator: Adobe Illustrator 21.1.0, SVG Export Plug-In . SVG Version: 6.00 Build 0)  -->
<svg version="1.1" id="Layer_1" xmlns="http://www.w3.org/2000/svg" xmlns:xlink="http://www.w3.org/1999/xlink" x="0px" y="0px"
	 viewBox="0 0 72 72" style="enable-background:new 0 0 72 72;" xml:space="preserve">
<style type="text/css">
	.st0{fill:#010101;}
	.st1{fill:#020202;}
	.st2{fill:#020201;}
	.st3{fill:#3A53A4;}
	.st4{fill:#2C3994;}
	.st5{fill:#73BF44;}
	.st6{fill:#EE2C24;}
	.st7{fill:#F9E902;}
	.st8{fill:#FCEE25;}
	.st9{fill:#030302;}
	.st10{fill:#FCEE21;}
	.st11{fill:#FCEE24;}
	.st12{fill:#FBEE23;}
	.st13{fill:#FFFFFF;}
	.st14{fill:#020101;}
	.st15{fill:#61CAE1;}
	.st16{fill:#ED1A55;}
	.st17{fill:#EE1E57;}
	.st18{fill:#EE1C58;}
	.st19{fill:#F26622;}
	.st20{fill:#A9509F;}
	.st21{fill:#030505;}
	.st22{fill:#FBFAFA;}
</style>
<g>
	<g>
		<path class="st0" d="M53.5,25.1c0,1.7,0,3.4,0,5.1c0,0.8,0.1,1.5,0.2,2.3c0,0.2,0,0.4-0.3,0.4c-1.3,0.1-2.5,0.3-3.7,0.5
			c-0.4,0.1-0.5,0-0.5-0.5c0-2.8,0-5.5,0-8.3c0-0.9-0.4-1.6-1.1-2c-0.8-0.5-1.5-0.2-1.7,0.7c-0.1,0.3-0.1,0.6-0.1,0.9
			c0,2.7,0,5.5,0,8.2c0,0.4-0.1,0.5-0.5,0.5c-1.2,0-2.4,0-3.6,0c-0.5,0-0.5-0.1-0.5-0.6c0.1-1.8,0.3-3.6,0.2-5.4
			c0-1.2-0.1-2.4-0.6-3.6c-0.4-0.9-1-1.3-1.7-1c-0.5,0.2-0.7,0.5-0.9,1c-0.5,1.3-0.5,2.6-0.5,3.9c0,1.7,0.1,3.4,0.2,5.1
			c0,0.4-0.1,0.6-0.5,0.6c-1.1,0-2.3,0.1-3.4,0.4c-0.7,0.2-0.7,0.1-0.8-0.6c-0.1-1.5-0.1-2.9-0.1-4.4c-0.1-3.4-0.2-6.8-0.3-10.2
			c0-1.3,0.4-1.7,1.6-1.7c1.1,0,2.2,0.3,3.3,0.4c1.2,0.1,2.4,0.1,3.6-0.1c0.7-0.1,1.4-0.1,2,0.3c1,0.6,2.1,0.5,3.1,0.1
			c2.1-0.9,4.1-0.8,6.1,0.1c0.3,0.1,0.4,0.3,0.5,0.6c0.3,1.5,0.2,2.9,0.2,4.4c0,0.9,0,1.9,0,2.8C53.6,25.1,53.6,25.1,53.5,25.1z"/>
		<path class="st0" d="M55.3,27c0.3,0,0.6,0.2,0.8,0.2c0.7,0.2,1.3,0.3,1.9-0.1c0.8-0.4,1.6-0.3,2.3,0c0.3,0.1,0.6,0.4,0.6,0.8
			c0.2,0.6,1,1.3,1.7,1.3c0.5,0,1.2-0.7,1.4-1.3c0.2-0.5,0-0.8-0.3-1.1c-1.1-1.1-2.4-1.3-3.8-1.6c-0.5-0.1-1-0.2-1.5-0.3
			c-2-0.5-2.8-1.8-3-4c0-0.3,0-0.7-0.1-1c-0.1-1.2,0.3-2.1,1.3-2.8c1.2-0.8,2.5-1.2,3.9-1.4c1.9-0.3,3.8-0.2,5.6,0.4
			c1.7,0.6,2.8,1.7,2.9,3.6c0,0.6,0.2,1.2,0.3,1.7c0.1,0.2,0,0.3-0.2,0.3c-1.1,0.2-2.3,0.5-3.4,0.5c-0.8,0-1.3-0.3-1.7-1
			c-0.3-0.6-0.7-1.2-1.2-1.7c-0.2-0.2-0.4-0.2-0.7,0c-1.4,1.2-1.3,2.1,0.4,2.8c1.1,0.5,2.3,0.6,3.4,1c0.5,0.1,0.9,0.3,1.3,0.6
			c2.1,1.1,2.8,3,2,5.2c-1,2.9-4.6,5.9-8.5,5.3c-2.2-0.3-3.7-1.6-4.9-3.4c-0.3-0.5-0.4-1.1-0.4-1.6C55.3,28.6,55.3,27.8,55.3,27z"/>
		<path class="st1" d="M9.2,14.2c0.7-0.6,1.3-1.2,1.6-2.1c0.3-1.4,0.6-1.7,2.1-1.9c1.1-0.2,2.2-0.2,3.3-0.3c0.5,0,0.6,0.1,0.6,0.6
			c0,6.9,0,13.8,0,20.7c0,0.5,0,0.9,0,1.4c0,0.3,0,0.4-0.3,0.4c-1.3,0-2.7,0.1-4,0.2c-0.4,0-0.6-0.1-0.6-0.5c0-0.4-0.1-0.7-0.1-1.1
			c0-3.1,0-6.2,0-9.5c-0.6,0.4-0.9,0.8-1.2,1.3c-0.2,0.5-0.5,1.1-0.7,1.7c-0.1,0.3-0.2,0.3-0.4,0.1c-0.3-0.3-0.6-0.7-0.7-1.1
			c-0.2-0.5-0.4-1-0.8-1.4c-0.2,0.1-0.1,0.3-0.1,0.5c0,3.1,0,6.2,0,9.3c0,0.4-0.1,0.5-0.5,0.5c-1.4,0-2.8,0-4.1,0
			c-0.3,0-0.5,0-0.5-0.5c0-7.2,0-14.4,0-21.7c0-0.3,0.1-0.4,0.4-0.4c1.2,0,2.4,0,3.6,0c1.1,0,1.6,0.4,2,1.4
			C8.8,12.6,9,13.4,9.2,14.2z"/>
		<path class="st2" d="M18.6,26c0.1-3,0.4-5.6,0.5-8.3c0-0.3,0.2-0.4,0.4-0.5c2.8-1.7,5.7-1.9,8.8-1.1c2.1,0.6,3.1,2,3.4,4
			c0.6,3.5,0.5,6.9-0.5,10.3c-0.1,0.2-0.2,0.5-0.3,0.7c-0.8,1.7-2,2.3-4.1,2.1c-1.3-0.1-2.6-0.3-3.8-0.3c-2.7,0-3.7-1.5-4.2-3.6
			c-0.1-0.5-0.2-0.9-0.2-1.4C18.6,27.2,18.6,26.5,18.6,26z"/>
		<path class="st3" d="M34.6,32.5c-0.5-0.7-0.8-1.4-0.2-2.3c0.2-0.4,0.2-0.9,0.2-1.4c0-3.6,0-7.2,0-10.8c0-0.5,0.1-0.6,0.6-0.6
			c0.8,0,1.5,0,2.3,0c0.4,0,0.5,0.1,0.5,0.5c0,0.4,0,0.9,0,1.3c0.2,0,0.4-0.1,0.6-0.2c0.8-0.4,1.6-0.9,2.6-1c0.8-0.1,1.6,0,2.4,0.3
			c0.4,0.2,0.9,0.4,1.4,0.5c0.5,0.1,1.1,0.2,1.6-0.3c0.4-0.4,1-0.5,1.4-0.9c0.1-0.1,0.3-0.1,0.4-0.1c1.3,0,2.6,0.1,3.8,0.3
			c0.4,0.1,0.6,0.3,0.7,0.8c0.5,3.3,0.5,6.6,0.4,10c0,1.2,0,2.4,0,3.6c0,0.3-0.1,0.5-0.5,0.5c-0.6,0-1.3,0-1.9,0
			c-0.3,0-0.5-0.1-0.5-0.5c0-1.5,0-3,0-4.5c0-0.2,0-0.3,0.1-0.5c0.2-0.2,0.2-0.4,0.1-0.6c-0.4-0.8-0.3-1.7-0.4-2.6
			c-0.3-1.3-1-2.2-2.3-2.6c-0.2,0-0.3-0.1-0.4,0c-0.7,0.6-1.4,1.1-1.4,2.2c0,0.4,0,0.9,0,1.3c0,0.3,0.1,0.7-0.3,0.9
			c-0.1,0.1-0.2,0.2,0,0.3c0.5,0.4,0.8,0.9,0.1,1.5c0,0,0,0.1,0,0.1c0.5,0.5,0.2,1.2,0.1,1.7c-0.1,0.8-0.1,1.5,0.1,2.3
			c0.1,0.4,0,0.5-0.3,0.4c-0.6,0-1.3,0-1.9,0c-0.4,0-0.5-0.1-0.5-0.5c0-1.9,0-3.8,0-5.7c0-0.1,0-0.3,0-0.4c-0.4-0.7-0.5-1.5-0.5-2.3
			c0-0.1,0-0.1-0.1-0.2c-0.8-0.7-1.6-1.5-2.6-1.7c-0.8-0.2-1.4,0.2-1.7,0.9c-0.7,1.5-0.7,3-0.8,4.6c-0.1,1.1,0,2.2,0,3.3
			c0.1,0.7,0,1.5,0,2.2c0,0.2-0.1,0.3-0.3,0.3C36.2,32.5,35.4,32.6,34.6,32.5z"/>
		<path class="st4" d="M34.6,32.5c0.7,0,1.5,0,2.2,0c0.4,0,0.6-0.1,0.5-0.5c0-0.7,0-1.3,0-2c0.2,0.8,0.1,1.5,0.1,2.3
			c0,0.1,0,0.3-0.2,0.3C36.3,32.5,35.4,32.7,34.6,32.5z"/>
		<path class="st5" d="M55.7,28.3c0.6,0.1,1-0.1,1.5-0.4c0.7-0.4,2.5,0.2,3,0.9c0.4,0.5,1,0.9,1.6,1.2c1,0.4,2.5-0.2,3-1.2
			c0.3-0.6,0.4-1.4,0.3-2c-0.1-0.6-0.7-0.9-1.1-1.2c-1.2-0.8-2.7-0.9-4.1-1.3c-1.2-0.4-2.5-0.9-3.6-1.8c-0.1,0-0.1-0.1-0.1-0.2
			c0-1.2-0.2-2.4,0.8-3.4c1.7-1.8,3.8-2.4,6.2-2.1c1.3,0.2,2.5,0.5,3.7,0.9c0.5,0.2,1,0.6,1.1,1.2c0,0.1,0,0.2,0.1,0.3
			c0.6,0.4,0.3,1,0.3,1.5c0,0.1,0,0.2-0.2,0.2c-0.9,0.2-1.8,0.2-2.8,0c-0.6-0.1-1.1-0.5-1.5-1c-0.7-1.1-1.9-1.1-3-1.2
			c-0.3,0-1,0.8-1,1.2c0,0.4,0,0.9,0,1.3c0,0.1,0,0.3,0.1,0.4c0.9,1.3,1.9,2.4,3.7,2.3c0.5,0,1-0.1,1.3,0.4c0,0,0.1,0.1,0.2,0.1
			c1.4-0.1,1.9,1.1,2.6,1.9c0.5,0.6,0.2,1.6,0,2.4c-0.4,1.5-1.3,2.6-2.4,3.5c-0.6,0.5-1.2,0.8-2,0.7c-0.2,0-0.4,0.1-0.6,0.2
			C62.4,33,62,33,61.5,32.7c-0.4-0.3-1-0.2-1.5-0.2c-0.5,0-1-0.1-1.5-0.3c-0.9-0.3-1.5-0.9-1.9-1.7C56.1,29.8,55.9,29.1,55.7,28.3z"
			/>
		<path class="st6" d="M7.3,20.3c0,0.3,0,0.6,0,0.9c0,2.5,0,5.1,0,7.6c0,0.3,0,0.6-0.3,0.8c-0.2,0.1-0.2,0.4-0.2,0.6
			c0,0.7,0,1.3,0,2c0,0.3-0.1,0.4-0.4,0.4c-0.8,0-1.6,0-2.3,0c-0.4,0-0.5-0.1-0.5-0.5c0-2.4,0-4.9,0-7.3c0-0.9,0.1-1.8-0.4-2.6
			c-0.2-0.3,0-0.7,0-1.1c0-0.4,0-0.9,0-1.3c0-0.6-0.1-1.2,0.3-1.7c0.2-0.3,0.1-0.7,0.1-1.1c0-0.1,0-0.2-0.1-0.2
			c-0.6-0.1-0.4-0.5-0.4-0.9c0-0.5,0-0.9,0-1.4c0-0.3-0.1-0.7,0.3-0.9c0.2-0.1,0.1-0.6,0.1-0.9c0-1.2,0-1.2,1.2-1.2c0.7,0,1.3,0,2,0
			c0.5,0,0.8,0.2,0.8,0.6c0.1,0.4,0.2,0.8,0.5,1.1c0,0,0.1,0.1,0.1,0.1c-0.2,0.8,0.6,1.3,0.7,2.1c0,0.4,0.7,0.8,1.1,0.7
			c0.2-0.1,0.2-0.3,0.2-0.4c0.2-0.8,0.4-1.6,0.5-2.4c0.3-1.2,1.1-2,2.3-2.2c0.8-0.1,1.5-0.2,2.3-0.2c0.3,0,0.4,0.1,0.4,0.4
			c0,0.3,0,0.7,0,1c0,0.3,0,0.6,0.3,0.8c0.2,0.1,0.2,0.4,0.2,0.6c0,1,0,2,0,3c0,0.2,0,0.4-0.2,0.5c-0.1,0-0.2,0.1,0,0.2
			c0.4,0.4,0.4,0.8,0,1.2c0,0-0.1,0.1,0,0.2c0.6,0.6,0.2,1.3,0.3,2c-0.9,1.3-0.4,2.8-0.4,4.3c0,2.4,0.1,4.8-0.1,7.2
			c0,0.4-0.1,0.5-0.5,0.5c-0.8,0-1.6,0-2.3,0c-0.4,0-0.5-0.1-0.5-0.5c0-1.8,0-3.7,0-5.5c0-0.7,0.1-1.4-0.4-1.9
			C12,24.5,12,24.2,12,24.1c0-1.3,0-2.5,0-3.8c0-0.1,0.1-0.4-0.2-0.4c-0.2,0-0.6-0.1-0.6,0.2c-0.2,0.9-1,1.7-1,2.7
			c0,0.1,0,0.2,0,0.3c0,0.2,0.1,0.6-0.4,0.6c-0.4,0-0.7,0-0.8-0.5c-0.2-1-0.7-1.9-1.5-2.6C7.5,20.4,7.4,20.4,7.3,20.3z"/>
		<path class="st7" d="M21,17.1c0.9-0.2,1.9,0,2.8-0.1c0.7,0,1.5,0.1,2.2-0.4c0.2-0.1,0.3,0,0.5,0c1,0.2,1.9,0.5,2.8,0.9
			c1,0.4,1.5,1.3,1.5,2.3c0,0.4,0,0.9,0,1.3c0,0.4,0,0.7,0.3,0.9c0.2,0.1,0.1,0.2,0.1,0.4c-0.4,1.1-0.5,2.2-0.5,3.3c0,1,0,1.9,0,2.9
			c0,2.2-1.1,3.3-3.3,3.4c-0.5,0-1,0.1-1.3,0.5c-0.6,0-1.2,0-1.9,0c-0.4-0.4-0.9-0.4-1.5-0.6c-2.1-0.4-3-1.5-3.2-3.6
			c-0.2-2.5-0.2-5,0-7.5C19.7,19.5,20.2,18.2,21,17.1c0.4,0.2,0.9,0.1,1.4,0.1c0.9,0,1.7,0,2.6,0C23.6,17.1,22.3,17.2,21,17.1z"/>
		<path class="st8" d="M24.3,32.5c0.6-0.2,1.2-0.2,1.9,0C25.5,32.6,24.9,32.6,24.3,32.5z"/>
		<path class="st9" d="M25.3,20.2c1.1,0,1.8,0.7,2.6,1.4C28,21.7,28,21.9,28,22c0,2,0,3.9,0,5.9c0,0.1,0,0.3-0.1,0.3
			c-0.7,0.3-1,1.1-1.9,1c-0.7,0-1.4,0.2-1.9-0.5c0,0-0.1,0-0.1,0c-1.3,0-1.3-0.9-1.3-1.8c0.1-1.2,0-2.4,0-3.6
			C22.9,21.7,23.6,20.7,25.3,20.2L25.3,20.2z"/>
		<path class="st10" d="M21,17.1c1.4,0,2.7,0,4.1,0c0,0,0,0.1,0,0.1c-1.1,0-2.1,0-3.2,0C21.6,17.2,21.2,17.3,21,17.1
			C21,17.1,21,17.1,21,17.1z"/>
		<path class="st11" d="M24.8,29.3c0.6,0,1.1,0,1.7,0c0,0,0,0,0,0.1C25.9,29.4,25.3,29.4,24.8,29.3C24.7,29.4,24.8,29.4,24.8,29.3z"
			/>
		<path class="st12" d="M25.3,20.2C25.3,20.2,25.2,20.2,25.3,20.2c-0.1,0-0.3,0-0.1-0.1c0.1-0.1,0.3,0,0.5,0
			C25.5,20.3,25.4,20.2,25.3,20.2z"/>
		<path class="st13" d="M27.4,24.9c0,0.4,0,0.9,0,1.3c0,1.2,0,1.2-1,1.9c-0.2,0.2-1.4,0.1-1.7-0.1c-0.1-0.1-0.3-0.2-0.4-0.2
			c-0.7-0.1-0.9-0.5-0.9-1.1c0-1,0-2.1,0-3.1c0.1-1.5,1.4-2.4,2.7-1.9c0.8,0.3,1.2,1,1.2,1.8C27.4,23.8,27.4,24.4,27.4,24.9
			C27.4,24.9,27.4,24.9,27.4,24.9z"/>
	</g>
	<g>
		<path class="st14" d="M43.2,56c1.4,0.1,2.6,0.1,3.8-0.1c0.3,0,0.4-0.1,0.5-0.4c1.3-5,2.6-10,3.8-15c0.2-0.9,0.8-1.6,1.7-1.9
			c0.8-0.3,1.7-0.4,2.5-0.3c0.5,0,0.8,0.2,1,0.7c0.6,1.8,1,3.6,1.4,5.4c1.1,4.5,2,9,2.9,13.5c0.2,1.1,0.4,2.2,0.6,3.3
			c0.1,0.3-0.1,0.4-0.3,0.4c-1.3,0-2.6,0-4,0c-0.2,0-0.3-0.1-0.4-0.3c-0.1-1-0.2-1.9-0.6-2.8c-0.3-0.7-0.6-1.4-1.5-1.6
			c-0.4-0.1-0.7,0.1-1.1,0.1c-0.2,0-0.2,0.2-0.2,0.3c-0.3,1.3-0.7,2.5-0.8,3.9c0,0.4-0.1,0.6-0.6,0.6c-3.7-0.1-7.5-0.3-11.2-0.1
			c-2.1,0.1-4.2,0.1-6.3,0.1c-0.1,0-0.2,0-0.3,0c-0.6-0.1-0.7-0.2-0.5-0.8c0.1-0.4,0.2-0.8,0.2-1.2c0-6.5,0-12.9,0-19.4
			c0-0.5,0-0.9-0.4-1.3c-0.2-0.2-0.1-0.3,0.2-0.4c1.3-0.3,2.5-0.4,3.8-0.3c1,0.1,1.6,0.7,1.6,1.8c0,2.8-0.1,5.6-0.2,8.4
			c0,1.8-0.3,3.6-0.1,5.4c0.2,1.7,0.8,2.3,2.5,2.4C41.9,56.1,42.7,56,43.2,56z"/>
		<path class="st0" d="M18.3,55.9c0-1.8-0.1-4,0.1-6.2c0.1-1.4,0.4-2.9,0.3-4.3c0-0.3,0.1-0.3,0.3-0.3c1.5,0.1,2.9-0.4,4.4-0.4
			c0.4,0,0.5,0.1,0.3,0.4c-0.1,0.1-0.1,0.3-0.1,0.4c-0.1,0.4,0.1,0.6,0.5,0.5c0.4-0.1,0.8-0.3,1.1-0.4c1.6-0.7,3.2-0.6,4.8,0.1
			c1.2,0.5,1.5,1.7,1.7,2.9c0.2,1.7,0.1,3.4,0.1,5.1c0,1.8,0.1,3.7-0.1,5.5c-0.1,0.9-0.4,1.8-0.4,2.7c0,0.2-0.2,0.2-0.3,0.2
			c-1.3,0-2.7,0-4,0c-0.2,0-0.3,0-0.2-0.3c0.3-2.4,0.2-4.9-0.1-7.3c-0.1-1.1-0.3-2.2-0.7-3.2c-0.1-0.4-0.3-0.5-0.7-0.3
			c-1.3,0.5-1.7,1.6-1.9,2.9c-0.2,1.8-0.1,3.6-0.1,5.5c0,0.8,0,1.6,0.1,2.4c0,0.3-0.1,0.4-0.4,0.4c-1.5,0-3,0-4.4,0
			c-0.4,0-0.4-0.2-0.4-0.5C18.3,59.8,18.3,58,18.3,55.9z"/>
		<path class="st0" d="M10.7,52.3c0.1-2.5,0.1-4.9,0.2-7.4c0-1.4,0.3-2.9,0.1-4.3c0-0.2,0-0.3,0-0.5c-0.1-1.1,0.1-1.4,1.2-1.6
			c1-0.1,1.9-0.2,2.9-0.3c0.2,0,0.5,0,0.8,0c0.5,0.1,0.8,0.3,0.7,0.9c0,1-0.1,1.9-0.2,2.9c-0.1,4.9-0.2,9.9-0.1,14.8
			c0,1.4,0.3,2.8,0.4,4.3c0,0.4-0.1,0.5-0.5,0.5c-1.2,0-2.5,0-3.7,0c-0.4,0-0.7,0.1-1.1,0.3c-0.6,0.3-1,0-1-0.7c0-1.2,0-2.4,0.1-3.6
			C10.7,55.9,10.7,54.1,10.7,52.3z"/>
		<path class="st15" d="M48.4,60.6c0.3-0.6,0.4-1.1,0.4-1.7c0,0,0-0.1,0-0.1c0.9-1.1,0.5-2.4,0.8-3.7c0.2-0.7,0.2-1.5,0.1-2.2
			c0-0.1,0-0.2,0-0.2c0.9-0.9,0.6-2.2,1-3.3c0.3-0.8,0.4-1.7,0.4-2.6c0-0.1,0-0.2,0-0.3c0.9-0.8,0.5-1.9,0.8-2.9
			c0.1-0.6,0-1.3,0.6-1.8c0.2-0.2,0.1-0.5,0.1-0.7c0.1-1.4,1.3-2.1,2.5-1.5c0.8,0.3,1.1,1,1.2,1.8c0,0.6-0.1,1.3,0.4,1.9
			c0.3,0.4,0.1,1.1,0.2,1.7c0.2,1,0.8,1.9,1.1,2.9c0.1,0.3,0.2,0.5-0.1,0.8c-0.3,0.2-0.2,0.6-0.1,0.9c0.3,2.1,1,4,1.5,6.1
			c0.1,0.4,0.2,0.8,0.2,1.3c0.1,0.3,0.1,0.6,0.4,0.8c0.1,0.1,0.2,0.2,0.2,0.4c0,0.8,0.2,1.5,0.4,2.3c0.1,0.3,0,0.4-0.3,0.4
			c-0.7,0-1.4,0-2.1,0c-0.2,0-0.4-0.1-0.5-0.3c-0.3-0.6-0.5-1.3-0.7-1.9c-0.1-0.5,0-1.1-0.5-1.5c-0.1-0.1-0.1-0.3-0.1-0.5
			c0-0.7-0.3-1-1-1c-0.4,0-0.7,0-1.1,0c-0.9,0-1.5,0.5-1.6,1.4c-0.1,0.3-0.1,0.7-0.1,1c0,0.1,0,0.3,0,0.4c-0.5,0.4-0.4,1-0.4,1.5
			c0,0.4-0.1,0.5-0.4,0.5C50.6,60.4,49.6,60.5,48.4,60.6z"/>
		<path class="st16" d="M34.9,39.5c1,0,1.9,0,2.9,0c0.1,0.1,0.1,0.3,0.1,0.4c0,3.4,0,6.7,0,10.1c0,0.1,0,0.3,0,0.4
			c-0.3,0.3-0.4,0.6-0.4,1c0.1,1.9,0.3,3.8,0.5,5.7c0,0.2,0.1,0.3,0.3,0.3c2.3-0.3,4.6,0,6.9,0c1.3,0,1.3,0,1.3,1.4c0,0.5,0,1,0,1.6
			c0,0.3-0.1,0.4-0.4,0.4c-3.1,0-6.1,0-9.2-0.1c-0.1,0-0.3,0-0.3-0.1c-0.3-0.5-0.6-0.2-0.9,0.1c-0.8-0.1-0.8-0.1-0.8-1
			c0-6.4,0-12.9,0-19.3C34.8,40,34.7,39.7,34.9,39.5z"/>
		<path class="st17" d="M34.9,39.5c0,6.7,0,13.3,0,20c0,0.6,0,1.1,0.7,1.1c-0.2,0-0.4,0-0.6,0c-0.2,0-0.4-0.1-0.3-0.3
			c0-0.1,0-0.2,0-0.2c0-6.7,0-13.4,0-20C34.7,39.9,34.5,39.5,34.9,39.5z"/>
		<path class="st18" d="M37.9,50.4c0-3.6,0-7.3,0-10.9c0.2,0.1,0.1,0.3,0.1,0.4c0,3.3,0,6.6,0,9.9C38,50.1,38,50.3,37.9,50.4z"/>
		<path class="st19" d="M22.5,57.7c-0.1,1,0.1,2,0,3c0,0.3-0.1,0.4-0.4,0.4c-0.6,0-1.2,0.1-1.7,0c-0.5,0-0.8-0.4-0.8-0.8
			c-0.1-0.7-0.2-1.5-0.3-2.2c0-0.1,0-0.2,0-0.3c0.7-2.5,0.6-4.9,0-7.4c-0.2-0.9-0.2-1.9,0-2.8c0.1-0.4,0.5-0.8,0.4-1.4
			c0-0.2,0.2-0.1,0.4-0.2c0.9,0,1.7,0.5,2.6,0.7c0.1,0,0.1,0.1,0.2,0.2c0.1,0.8,0.6,0.5,0.9,0.3c0.6-0.4,1.3-0.7,2-1
			c0.8-0.4,1.7-0.3,2.6,0c1.4,0.4,1.8,1.6,2.1,2.9c0.1,0.4,0.1,0.8,0.5,1.1c0.1,0.1,0.1,0.2,0.1,0.3c0,1.3,0.2,2.5,0.4,3.8
			c0.2,1.6-0.1,3.3-0.3,4.9c-0.1,0.5-0.1,0.9-0.1,1.4c0,0.5-0.1,0.6-0.6,0.6c-0.5,0-1-0.1-1.5,0c-0.5,0.1-0.8-0.1-0.9-0.7
			c0-0.4-0.2-0.8-0.3-1.2c0-0.1-0.1-0.2-0.1-0.3c0.7-0.6-0.2-1.1-0.1-1.6c0.1-0.6,0-1.3,0-1.9c0-0.6,0-1.3,0-1.9c-0.1-1-0.3-2-1-2.8
			c-0.8-0.9-1.9-0.9-2.8-0.2c-0.2,0.1-0.2,0.3-0.3,0.5c-0.1,0.4-0.2,0.9-0.6,1.2c-0.1,0.1-0.1,0.2-0.1,0.3c0,1.2-0.3,2.3-0.4,3.5
			C22.4,56.4,22.5,57.1,22.5,57.7z"/>
		<path class="st20" d="M15.5,45.5c0,2,0.1,4-0.2,6c0,0.3-0.1,0.6-0.2,0.8c0,0.1-0.1,0.3,0,0.4c0.4,0.3,0.3,0.7,0.2,1.1
			c-0.5,1.5-0.2,3,0,4.5c0,0.1,0.1,0.3,0.1,0.4c0.1,1-0.2,1.3-1.2,1.4c-0.3,0-0.5,0-0.8,0.1c-0.6,0.1-0.9-0.2-1.1-0.7
			c0-0.1-0.1-0.2,0-0.3c0.5-0.5,0.2-0.9,0-1.4c-0.1-0.1,0-0.3,0-0.5c0-2.6,0-5.3,0.1-7.9c0-1.2,0-2.4-0.4-3.6c0-0.1,0-0.3,0-0.4
			c0.4-1.1,0.5-2.2,0.4-3.3c0-0.6-0.2-1.2,0.4-1.6c0.2-0.1,0.2-0.4,0.1-0.5c-0.2-0.4,0-0.4,0.3-0.4c0.5,0,1,0,1.6,0
			c0.4,0,0.6,0.2,0.7,0.6c0.2,0.7,0.2,1.5,0.2,2.2C15.5,43.3,15.5,44.4,15.5,45.5z"/>
		<path class="st21" d="M54.4,52.2c0,0-0.1,0-0.1,0c-1.4,0-1.4,0-1.2-1.5c0.2-1.3,0.5-2.7,0.7-4c0.1-0.4,0.1-0.8,0.1-1.2
			c0-0.4,0.2-0.5,0.6-0.5c0.4,0,0.4,0.2,0.4,0.5c0.1,1.7,0.5,3.4,0.8,5C56,52.2,56,52.2,54.4,52.2z"/>
		<path class="st22" d="M54.5,46.4c0.3,1.6,0.5,3.2,0.8,4.8c0,0,0,0.1,0,0.1c-0.4,0.5-0.9,0.1-1.4,0.2c-0.3,0.1-0.3-0.2-0.2-0.4
			C54,49.5,54.2,47.9,54.5,46.4C54.4,46.3,54.5,46.3,54.5,46.4z"/>
	</g>
</g>
</svg>
