<svg height="511pt" viewBox="1 -130 511.99998 511" width="511pt" xmlns="http://www.w3.org/2000/svg"><path d="m354.535156 77.523438c18.503906-11.457032 40.894532-11.972657 59.902344-1.386719 18.488281 10.296875 29.527344 28.933593 29.527344 49.859375 0 20.921875-11.039063 39.5625-29.527344 49.859375-19.007812 10.589843-41.402344 10.066406-59.902344-1.386719-27.789062-17.210938-52.121094-40.5625-70.355468-67.527344-23.570313-34.855468-54.992188-65.027344-90.875-87.25-.007813-.003906-.011719-.007812-.019532-.011718-20.078125-12.433594-42.949218-19.066407-66.144531-19.175782-21.804687-.136718-43.46875 5.492188-62.679687 16.191406-40.363282 22.480469-64.460938 63.339844-64.460938 109.300782 0 45.960937 24.097656 86.820312 64.457031 109.300781 19.035157 10.601563 40.488281 16.195313 62.074219 16.195313.203125 0 .40625 0 .609375-.003907 23.191406-.113281 46.066406-6.742187 66.144531-19.175781l.039063-.027344c23.035156-14.269531 44.214843-31.824218 62.675781-51.78125-10.289062-11.121094-19.746094-22.980468-28.179688-35.453125-4.453124-6.582031-9.269531-12.941406-14.40625-19.054687-15.914062 18.9375-34.941406 35.460937-55.949218 48.472656-.003906 0-.003906 0-.003906 0h.003906c-18.5 11.457031-40.894532 11.972656-59.902344 1.386719-18.488281-10.296875-29.527344-28.9375-29.527344-49.859375 0-20.925782 11.039063-39.5625 29.527344-49.863282 19.007812-10.585937 41.402344-10.066406 59.902344 1.390626 0 0 .003906 0 .003906.003906 27.789062 17.207031 52.117188 40.558594 70.351562 67.523437 23.558594 34.839844 54.972657 65 90.839844 87.222657.019532.011718.035156.027343.054688.039062 20.082031 12.433594 42.953125 19.066406 66.144531 19.175781.203125.003907.40625.003907.609375.003907 21.585938 0 43.039062-5.597657 62.074219-16.195313 40.359375-22.480469 64.457031-63.339844 64.457031-109.300781 0-45.960938-24.097656-86.820313-64.457031-109.300782-19.214844-10.699218-40.84375-16.289062-62.683594-16.195312-23.191406.113281-46.066406 6.746094-66.144531 19.179688.015625-.007813.027344-.015626.042968-.023438-.015624.007812-.027343.015625-.042968.023438-23.046875 14.277343-44.242188 31.839843-62.714844 51.808593 10.289062 11.121094 19.746094 22.980469 28.179688 35.453125 4.449218 6.582032 9.269531 12.945313 14.40625 19.058594 15.914062-18.941406 34.941406-35.464844 55.949218-48.476562zm0 0" fill="#ff98c9"/><g fill="#eb6da8"><path d="m213.414062 125.996094c5.136719 6.113281 9.953126 12.472656 14.40625 19.054687 8.433594 12.472657 17.890626 24.332031 28.179688 35.457031-7.207031 7.789063-14.835938 15.207032-22.820312 22.214844-10.730469-12.0625-22.496094-27.835937-30.960938-40.359375-3.195312-4.722656-6.679688-9.386719-10.371094-13.921875 7.679688-7.007812 14.898438-14.511718 21.566406-22.445312zm0 0"/><path d="m256.015625 71.46875v.003906c10.289063 11.121094 19.730469 22.996094 28.164063 35.46875 1.441406 2.128906 2.933593 4.226563 4.445312 6.308594-.335938-.464844-.683594-.921875-1.019531-1.390625 1.070312 1.496094 2.164062 2.972656 3.269531 4.441406.085938.117188.167969.234375.257812.347657 2.390626 3.164062 4.867188 6.269531 7.425782 9.3125.007812.011718.019531.023437.027344.035156 6.667968-7.929688 13.882812-15.433594 21.558593-22.4375-3.667969-4.515625-7.152343-9.179688-10.363281-13.929688-9.023438-13.347656-20.351562-27.820312-31.453125-39.929687-7.800781 6.871093-15.257813 14.144531-22.3125 21.769531zm0 0"/></g></svg>