<?xml version="1.0" encoding="iso-8859-1"?>
<!-- Generator: Adobe Illustrator 19.0.0, SVG Export Plug-In . SVG Version: 6.00 Build 0)  -->
<svg version="1.1" id="Capa_1" xmlns="http://www.w3.org/2000/svg" xmlns:xlink="http://www.w3.org/1999/xlink" x="0px" y="0px"
	 viewBox="0 0 511.999 511.999" style="enable-background:new 0 0 511.999 511.999;" xml:space="preserve">
<path style="fill:#52B4DE;" d="M400.148,331.439l94.577-94.874c19.627-19.689,7.985-53.338-19.613-56.688l-29.396-3.568
	c-30.034-3.645-58.875-13.948-84.421-30.159l-81.558-51.753c-14.49-9.195-32.988-9.195-47.478,0l-81.558,51.753
	c-25.546,16.21-54.387,26.514-84.421,30.159l-29.397,3.568c-27.599,3.349-39.241,36.999-19.613,56.688l94.577,94.874H400.148z"/>
<path style="fill:#FBE067;" d="M380.254,294.685c-41.716-5.993-84.237-9.032-126.38-9.032s-84.665,3.039-126.381,9.033
	c-13.615,1.956-26.247,7.276-36.965,15.365l21.321,21.388h288.3l19.459-19.52C408.401,302.773,394.894,296.789,380.254,294.685z"/>
<path style="opacity:0.1;enable-background:new    ;" d="M149.142,147.112c-25.159,15.648-53.433,25.627-82.861,29.199
	l-29.397,3.568c-27.599,3.349-39.241,36.999-19.613,56.688l94.577,94.874h75.859C124.972,258.081,128.336,191.245,149.142,147.112z"
	/>
<g>
	<circle style="fill:#F9993E;" cx="96.32" cy="318.965" r="20.386"/>
	<circle style="fill:#F9993E;" cx="415.676" cy="318.965" r="20.386"/>
</g>
<path style="fill:#5C626B;" d="M376.802,318.706L376.802,318.706c-81.535-11.714-164.324-11.714-245.858,0l0,0
	c-14.467,2.078-27.556,9.71-36.492,21.275l-14.564,18.852c-12.811,16.582-3.653,40.849,16.92,44.832l58.175,11.263
	c61.437,11.894,128.577,13.398,197.78,0l58.175-11.263c20.573-3.983,29.732-28.25,16.92-44.832l-14.564-18.852
	C404.358,328.416,391.269,320.785,376.802,318.706z"/>
<path style="fill:#FBE067;" d="M310.718,217.683l5.204-57.327c0.55-6.06-6.236-9.997-11.224-6.512l-11.276,7.879
	c-4.958,3.464-11.592,3.302-16.375-0.4l-13.648-10.565c-4.356-3.372-10.441-3.372-14.797,0l-13.649,10.565
	c-4.783,3.702-11.417,3.864-16.375,0.4l-11.277-7.879c-4.988-3.485-11.774,0.452-11.224,6.512l5.204,57.327
	c2.569,28.304,26.3,49.977,54.719,49.977l0,0C284.419,267.66,308.148,245.987,310.718,217.683z"/>
<path style="opacity:0.1;enable-background:new    ;" d="M235.355,161.01l-0.404,0.313c-4.783,3.702-11.417,3.864-16.375,0.4
	l-11.277-7.879c-4.988-3.485-11.774,0.452-11.224,6.512l5.204,57.327c2.569,28.304,26.3,49.977,54.719,49.977l0,0
	c5.199,0,10.239-0.732,15.023-2.091C232.97,250.192,232.026,192.189,235.355,161.01z"/>
<path style="opacity:0.15;enable-background:new    ;" d="M173.094,313.712c-14.078,1.322-28.133,2.98-42.149,4.994l0,0
	c-14.467,2.078-27.556,9.71-36.492,21.275l-14.564,18.852c-12.811,16.582-3.653,40.849,16.92,44.832l58.175,11.263
	c7.115,1.377,14.31,2.609,21.572,3.701C130.7,378.403,156.94,340.215,173.094,313.712z"/>
<path d="M509.716,199.642c-5.15-14.886-18.064-25.313-33.701-27.21l-29.396-3.567c-28.744-3.488-56.858-13.532-81.307-29.046
	l-81.558-51.754c-16.862-10.701-38.653-10.701-55.516,0l-81.557,51.754c-17.139,10.875-35.788,18.99-55.426,24.118
	c-4.008,1.047-6.408,5.145-5.361,9.152c1.046,4.008,5.144,6.407,9.151,5.362c21.143-5.522,41.22-14.258,59.672-25.968l81.558-51.753
	c11.98-7.603,27.462-7.602,39.441,0l81.558,51.753c26.322,16.702,56.591,27.516,87.537,31.272l29.397,3.567
	c10.047,1.219,18.021,7.658,21.331,17.223c3.31,9.565,1.019,19.555-6.126,26.725l-62.147,62.342
	c-3.532-1.62-7.454-2.531-11.587-2.531c-4.193,0-8.17,0.936-11.741,2.601c-7.203-3.135-14.79-5.297-22.617-6.421
	c-42.067-6.044-84.947-9.108-127.447-9.108c-42.502,0-85.381,3.064-127.448,9.108c-7.051,1.014-13.928,2.873-20.494,5.528
	c-2.998-1.104-6.235-1.708-9.611-1.708c-4.133,0-8.056,0.911-11.587,2.531l-62.147-62.342c-7.146-7.169-9.436-17.158-6.126-26.725
	c3.309-9.565,11.284-16.003,21.331-17.223l11.476-1.393c4.112-0.499,7.041-4.237,6.542-8.349c-0.499-4.112-4.235-7.036-8.349-6.542
	l-11.476,1.393c-15.637,1.897-28.551,12.323-33.701,27.21s-1.441,31.063,9.679,42.219l61.279,61.472
	c-3.033,4.462-4.808,9.845-4.808,15.635c0,10.292,5.654,19.371,14.085,24.194l-8.565,11.086c-7.62,9.863-9.542,22.713-5.141,34.375
	c4.401,11.661,14.334,20.037,26.571,22.406l58.175,11.263c33.283,6.443,66.799,9.666,100.316,9.666s67.033-3.222,100.316-9.666
	l37.84-7.326c4.067-0.787,6.725-4.722,5.938-8.789c-0.788-4.066-4.722-6.724-8.789-5.938l-37.84,7.326
	c-64.672,12.521-130.256,12.521-194.929,0l-58.175-11.263c-7.086-1.372-12.838-6.223-15.387-12.976
	c-2.549-6.753-1.436-14.195,2.977-19.907l14.564-18.851c4.963-6.424,11.33-11.406,18.556-14.649c0.226-0.085,0.447-0.18,0.663-0.286
	c3.919-1.689,8.077-2.881,12.404-3.502c80.863-11.618,162.863-11.618,243.725,0c12.606,1.811,23.837,8.359,31.624,18.437
	l14.564,18.851c5.888,7.621,5.746,18.192-0.345,25.706c-2.608,3.218-2.114,7.941,1.104,10.549c3.218,2.609,7.942,2.115,10.549-1.104
	c10.492-12.944,10.723-31.171,0.563-44.323l-7.39-9.565c10.106-4.224,17.161-14.215,17.161-25.716c0-5.79-1.775-11.173-4.808-15.635
	l61.279-61.472C511.158,230.704,514.866,214.528,509.716,199.642z M92.138,331.124c-5.078-1.744-8.705-6.559-8.705-12.157
	c0-7.105,5.781-12.886,12.886-12.886c6.78,0,12.341,5.268,12.837,11.923C102.817,321.351,97.07,325.771,92.138,331.124z
	 M388.299,313.696c-3.376-1.079-6.858-1.9-10.431-2.414c-82.277-11.821-165.713-11.821-247.991,0
	c-2.176,0.313-4.319,0.741-6.427,1.266c-0.734-3.104-1.987-6.007-3.664-8.615c2.878-0.78,5.805-1.397,8.772-1.823
	c41.363-5.943,83.525-8.956,125.314-8.956s83.952,3.013,125.313,8.956c4.219,0.606,8.349,1.585,12.367,2.9
	C390.013,307.661,388.897,310.586,388.299,313.696z M416.507,331.803c-0.09,0.006-0.176,0.021-0.265,0.03
	c-3.944-4.41-8.429-8.211-13.341-11.324c-0.064-0.52-0.107-1.036-0.107-1.542c0-7.105,5.781-12.886,12.886-12.886
	c7.105,0,12.886,5.781,12.886,12.886C428.565,325.736,423.269,331.374,416.507,331.803z M213.886,258.824
	c11.535,10.535,26.491,16.336,42.112,16.336s30.578-5.802,42.112-16.336c11.534-10.535,18.665-24.904,20.077-40.462l5.205-57.328
	c0.521-5.742-2.253-11.107-7.241-14.001c-4.985-2.892-11.021-2.64-15.748,0.663l-11.277,7.879c-2.279,1.593-5.289,1.519-7.489-0.183
	l-13.648-10.565c-7.059-5.465-16.919-5.465-23.979,0l-13.649,10.565c-2.199,1.703-5.208,1.776-7.488,0.183l-11.277-7.879
	c-4.727-3.301-10.76-3.556-15.749-0.662c-4.987,2.894-7.761,8.258-7.24,14.001l5.204,57.327
	C195.222,233.919,202.352,248.289,213.886,258.824z M214.279,167.871c7.691,5.374,17.843,5.126,25.262-0.618l13.649-10.565
	c1.652-1.279,3.961-1.28,5.615,0l13.648,10.565c7.419,5.743,17.571,5.991,25.262,0.618l10.669-7.454l-5.138,56.588
	c-2.233,24.602-22.546,43.155-47.25,43.155c-24.703,0-45.017-18.552-47.25-43.155l-5.137-56.588L214.279,167.871z M221.787,215.587
	c4.142,0,7.5-3.358,7.5-7.5v-5.679c0-4.142-3.358-7.5-7.5-7.5c-4.142,0-7.5,3.358-7.5,7.5v5.679
	C214.286,212.229,217.645,215.587,221.787,215.587z M255.998,219.947c5.624,0,10.973-2.435,14.673-6.681
	c2.722-3.123,2.397-7.86-0.726-10.582c-3.123-2.722-7.86-2.396-10.582,0.726c-0.5,0.574-1.603,1.537-3.366,1.537
	c-1.763,0-2.865-0.962-3.365-1.536c-2.721-3.123-7.459-3.448-10.582-0.727c-3.122,2.721-3.448,7.458-0.727,10.581
	C245.024,217.511,250.373,219.947,255.998,219.947z M290.21,215.587c4.142,0,7.5-3.358,7.5-7.5v-5.679c0-4.142-3.358-7.5-7.5-7.5
	c-4.142,0-7.5,3.358-7.5,7.5v5.679C282.71,212.229,286.068,215.587,290.21,215.587z"/>
<g>
</g>
<g>
</g>
<g>
</g>
<g>
</g>
<g>
</g>
<g>
</g>
<g>
</g>
<g>
</g>
<g>
</g>
<g>
</g>
<g>
</g>
<g>
</g>
<g>
</g>
<g>
</g>
<g>
</g>
</svg>
