<svg height="511pt" viewBox="-107 0 511 511.9989" width="511pt" xmlns="http://www.w3.org/2000/svg"><path d="m248.851562 291.046875c-13.582031 0-25.390624-10.058594-27.230468-23.878906-.117188-.851563-4.589844-31.882813-21.191406-66.644531-21.273438-44.542969-51.78125-74.421876-90.675782-88.816407-14.246094-5.269531-21.523437-21.089843-16.25-35.339843 5.269532-14.246094 21.09375-21.519532 35.339844-16.25 52.585938 19.457031 94.785156 60.402343 122.035156 118.414062 20.023438 42.625 25.074219 79.867188 25.277344 81.429688 1.976562 15.0625-8.632812 28.871093-23.695312 30.847656-1.210938.160156-2.417969.238281-3.609376.238281zm0 0" fill="#dfb297"/><path d="m262.03125 85.003906-32.15625-63.234375c-6.546875-12.878906-22.296875-18.015625-35.175781-11.464843-12.882813 6.550781-18.011719 22.296874-11.464844 35.179687l32.15625 63.234375c14.445313 28.414062 22.085937 60.28125 22.085937 92.160156v42.363282c0 3.488281-4.488281 5.335937-6.664062 2.386718-23.691406-32.066406-61.121094-51.070312-101.15625-51.070312-27.675781 0-53.933594 8.820312-75.933594 25.511718-20.960937 15.898438-36.671875 38.394532-44.328125 63.441407-4.25 13.894531 3.191407 29.261719 17.082031 33.523437 2.5625.785156 5.144532 1.15625 7.6875 1.15625 11.292969 0 21.714844-7.371094 25.078126-18.753906 9.144531-30.941406 38.101562-52.554688 70.414062-52.554688 39.269531 0 61.558594 31.984376 61.265625 71.320313-.289063 39.03125-23.125 70.25-62.15625 70.25h-24.339844c-24.238281 0-43.972656-19.65625-44.101562-43.863281-.074219-14.28125-11.542969-26.21875-25.824219-26.394532-14.605469-.183593-26.5 11.597657-26.5 26.160157 0 31.320312 17.589844 61.980469 31.667969 89.0625 8.882812 17.09375 19.171875 33.441406 29.828125 49.476562 1.910156 2.875 12.03125 21.644531 14.8125 21.644531h161.113281c24.507813 0 44.375-19.867187 44.375-44.375v-259.285156c0-40.078125-9.601563-80.148437-27.765625-115.875zm0 0" fill="#fbc4ac"/><path d="m289.796875 380.445312c4.144531 0 7.503906-3.359374 7.503906-7.503906v-172.105468c0-41.257813-9.886719-82.5-28.585937-119.273438 0 0-32.121094-63.175781-32.152344-63.238281-8.3125-16.347657-28.910156-23.066407-45.261719-14.75-16.347656 8.3125-23.070312 28.90625-14.753906 45.265625l23.535156 46.28125c-20.203125-18.566406-43.15625-32.65625-68.632812-42.082032-17.871094-6.609374-38.367188 2.8125-44.980469 20.683594-6.628906 17.914063 2.816406 38.371094 20.683594 44.976563 36.914062 13.660156 65.964844 42.160156 86.359375 84.707031-19.375-10.585938-41.324219-16.390625-63.855469-16.390625-29.328125 0-57.152344 9.351563-80.46875 27.035156-22.175781 16.824219-38.855469 40.699219-46.96875 67.226563-4.238281 13.863281.484375 28.320312 10.804688 36.832031-.867188.703125-1.707032 1.453125-2.511719 2.25-6.457031 6.375-10.011719 14.878906-10.011719 23.953125 0 30.550781 15.371094 59.839844 28.933594 85.679688 10.953125 20.875 24.085937 40.285156 35.953125 60.617187 9.953125 17.089844 13.21875 21.390625 18.921875 21.390625h161.113281c28.605469 0 51.878906-23.273438 51.878906-51.878906v-57.175782c0-4.144531-3.359375-7.5-7.503906-7.5-4.140625 0-7.5 3.355469-7.5 7.5v57.175782c0 20.332031-16.542969 36.875-36.875 36.875h-158.375c-2.523437-3.335938-7.050781-11.113282-8.695313-13.9375-11.492187-19.730469-24.8125-39.421875-35.636718-60.039063-12.753906-24.304687-27.210938-51.851562-27.210938-78.707031 0-10.28125 8.636719-18.796875 18.898438-18.660156 10.105468.125 18.367187 8.621094 18.421875 18.9375.148437 28.296875 23.296875 51.324218 51.601562 51.324218h24.339844c20.898437 0 38.660156-8.015624 51.359375-23.175781 11.644531-13.898437 18.144531-33.261719 18.300781-54.519531.179688-24.367188-7.601562-45.730469-21.914062-60.148438-12.164063-12.253906-28.363281-18.730468-46.855469-18.730468-35.613281 0-67.527344 23.820312-77.609375 57.929687-2.890625 9.78125-13.648437 15.535157-23.371094 12.550781-9.664062-2.964843-15.207031-14.027343-12.109375-24.15625 7.199219-23.539062 22.003906-44.726562 41.6875-59.660156 20.6875-15.6875 45.378906-23.984375 71.402344-23.984375 35.011719 0 68.453125 15.78125 90.800781 42.527344 3.859375 4.621094 7.136719 10.683594 14.273438 9.957031 5.644531-.578125 10.246093-5.605468 10.246093-11.304687v-42.363281c0-32.992188-7.945312-66.148438-22.902343-95.558594 0 0-32.105469-63.144532-32.152344-63.234375-4.621094-9.085938-.890625-20.484375 8.175781-25.09375 9.085938-4.621094 20.484375-.878907 25.089844 8.175781l32.15625 63.238281c17.632812 34.675781 26.953125 73.570313 26.953125 112.476563v172.105468c0 4.140626 3.359375 7.5 7.5 7.5zm-223.363281-78.921874c8.210937-27.777344 34.207031-47.179688 63.222656-47.179688 14.402344 0 26.921875 4.941406 36.207031 14.292969 11.472657 11.5625 17.710938 29.128906 17.558594 49.46875-.230469 31.261719-17.222656 62.804687-54.65625 62.804687h-24.34375c-20.070313 0-36.488281-16.332031-36.597656-36.402344-.054688-10.578124-4.984375-20.085937-12.621094-26.316406 5.238281-4.203125 9.246094-9.957031 11.230469-16.667968zm150.003906-82.351563c-2.796875-7.566406-5.898438-14.933594-9.238281-21.925781-22.140625-46.363282-54.050781-77.523438-94.839844-92.617188-10.179687-3.765625-15.585937-15.527344-11.820313-25.699218 3.757813-10.15625 15.5625-15.570313 25.703126-11.820313 37.601562 13.910156 69.355468 38.851563 94.402343 74.136719.023438.085937.054688.171875.082031.257812 6.074219 19.136719 9.246094 39.246094 9.246094 59.332032v31.75c-1.714844-1.960938-3.503906-3.863282-5.332031-5.71875-2.628906-2.671876-5.359375-5.25-8.203125-7.695313zm0 0"/></svg>