<svg height="511pt" viewBox="1 -150 511.99998 511" width="511pt" xmlns="http://www.w3.org/2000/svg"><path d="m308.597656 44-14.699218 26.101562c-11.097657-6.300781-25-9.601562-37.898438-9.601562s-26.800781 3.300781-37.898438 9.601562l-14.699218-26.101562c15.597656-8.699219 34.597656-13.199219 52.597656-13.199219s37 4.5 52.597656 13.199219zm0 0" fill="#3e5959"/><path d="m47.535156 141.753906 21.210938 21.210938-43.140625 43.136718-21.210938-21.210937zm0 0" fill="#3e5959"/><path d="m455.289062 149.667969 50.054688 33.367187-16.640625 24.960938-50.054687-33.367188zm0 0" fill="#384949"/><path d="m0 60.5h50.128906v30h-50.128906zm0 0" fill="#3e5959"/><path d="m461.871094 60.5h50.128906v30h-50.128906zm0 0" fill="#384949"/><path d="m308.597656 44-14.699218 26.101562c-11.097657-6.300781-25-9.601562-37.898438-9.601562v-29.699219c18 0 37 4.5 52.597656 13.199219zm0 0" fill="#384949"/><path d="m135 210.5c-57.890625 0-105-47.109375-105-105s47.109375-105 105-105 105 47.109375 105 105-47.109375 105-105 105zm0 0" fill="#4a696f"/><path d="m377 210.5c-57.890625 0-105-47.109375-105-105s47.109375-105 105-105 105 47.109375 105 105-47.109375 105-105 105zm0 0" fill="#3e5959"/><path d="m135 180.5c-41.351562 0-75-33.648438-75-75s33.648438-75 75-75 75 33.648438 75 75-33.648438 75-75 75zm0 0" fill="#deecf1"/><path d="m377 180.5c-41.351562 0-75-33.648438-75-75s33.648438-75 75-75 75 33.648438 75 75-33.648438 75-75 75zm0 0" fill="#c6e2e7"/></svg>