<?xml version="1.0" encoding="iso-8859-1"?>
<!-- Generator: Adobe Illustrator 19.0.0, SVG Export Plug-In . SVG Version: 6.00 Build 0)  -->
<svg version="1.1" id="Capa_1" xmlns="http://www.w3.org/2000/svg" xmlns:xlink="http://www.w3.org/1999/xlink" x="0px" y="0px"
	 viewBox="0 0 512 512" style="enable-background:new 0 0 512 512;" xml:space="preserve">
<path style="fill:#6B5445;" d="M281.707,114.57c5.191-17.253-7.755-34.587-25.707-34.587c-17.946,0-30.9,17.328-25.707,34.587
	C247.22,111.548,264.761,111.545,281.707,114.57z"/>
<path style="fill:#60433A;" d="M269.843,83.825c-20.794-12.541-46.661,7.114-39.55,30.745c8.703-1.553,17.648-2.342,27.125-2.251
	C255.047,100.962,260.174,89.656,269.843,83.825z"/>
<path style="fill:#EDBF77;" d="M401.321,337.229v-80.636c0-80.259-65.062-145.321-145.321-145.321
	c-80.258,0-145.321,65.062-145.321,145.321v80.636C180.587,365.488,331.244,365.557,401.321,337.229z"/>
<path style="fill:#DDA862;" d="M136.991,254.618c0-68.624,45.993-126.317,108.338-142.954c-75.275,5.464-134.65,68.26-134.65,144.93
	v80.636c7.596,3.071,16.441,5.885,26.312,8.395V254.618z"/>
<path style="fill:#F2D59F;" d="M401.321,319.476v17.754c-69.908,28.259-220.565,28.328-290.642,0v-17.754
	C43.82,330.618,0,349.234,0,370.321c0,34.109,114.615,61.759,256,61.759s256-27.65,256-61.759
	C512,349.234,468.18,330.618,401.321,319.476z"/>
<path style="fill:#EDBF77;" d="M42.466,392.346c0-19.043,35.736-36.069,91.901-47.397c-8.822-2.336-16.769-4.923-23.688-7.72
	v-17.754C43.82,330.618,0,349.234,0,370.321c0,13.67,18.422,26.299,49.586,36.53C44.943,402.199,42.466,397.343,42.466,392.346z"/>
<path style="fill:#F2D59F;" d="M321.144,316.025c0-13.762,0-49.8,0-59.432c0-80.259-29.166-145.321-65.144-145.321
	s-65.144,65.062-65.144,145.321c0,14.493,0,48.152,0,59.432C232.552,320.628,279.441,320.628,321.144,316.025z"/>
<path style="fill:#EAEAEA;" d="M275.956,282.671H240.29c-4.27,0-7.731-3.461-7.731-7.731s3.461-7.731,7.731-7.731h35.665
	c4.27,0,7.731,3.461,7.731,7.731S280.225,282.671,275.956,282.671z"/>
<path style="fill:#93482B;" d="M110.679,298.247v38.982c69.908,28.259,220.565,28.328,290.642,0v-38.982
	C331.413,326.506,180.756,326.575,110.679,298.247z"/>
<path style="fill:#843A24;" d="M110.679,298.247v38.982c8.368,3.373,17.429,6.136,26.312,8.395v-38.982
	C127.12,304.132,118.275,301.318,110.679,298.247z"/>
<g>
</g>
<g>
</g>
<g>
</g>
<g>
</g>
<g>
</g>
<g>
</g>
<g>
</g>
<g>
</g>
<g>
</g>
<g>
</g>
<g>
</g>
<g>
</g>
<g>
</g>
<g>
</g>
<g>
</g>
</svg>
